<svg id="circle" xmlns="http://www.w3.org/2000/svg" viewBox="0 0 640 640"><defs><filter id="svgFilter" name="svgFilter"><feGaussianBlur stdDeviation="3" in="SourceGraphic"></feGaussianBlur> <feOffset></feOffset> <feMerge><feMergeNode></feMergeNode> <feMergeNode in="SourceGraphic"></feMergeNode></feMerge></filter></defs> <path d="M361.16,83.52a239.58,239.58,0,0,1,139.56,78.55" class="backPlaceHolder"></path><path d="M557.31,284A241.47,241.47,0,0,1,546.5,399.55" class="backPlaceHolder"></path><path d="M450.44,521.49a238.23,238.23,0,0,1-89.28,35" class="backPlaceHolder"></path><path d="M278.84,556.48a238.23,238.23,0,0,1-89.28-35" class="backPlaceHolder"></path><path d="M93.5,399.55A241.47,241.47,0,0,1,82.69,284" class="backPlaceHolder"></path><path d="M139.28,162.07A239.58,239.58,0,0,1,278.84,83.52" class="backPlaceHolder"></path> <path stroke-dasharray="96.554931640625" stroke-dashoffset="71.0415083138316" class="activeNav" d="M278.84,556.48a238.23,238.23,0,0,1-89.28-35"></path></svg>